<?xml version="1.0" standalone="no"?><!DOCTYPE svg PUBLIC "-//W3C//DTD SVG 1.1//EN" "http://www.w3.org/Graphics/SVG/1.1/DTD/svg11.dtd"><svg t="1484047761483" class="icon" style="" viewBox="0 0 1024 1024" version="1.1" xmlns="http://www.w3.org/2000/svg" p-id="4960" xmlns:xlink="http://www.w3.org/1999/xlink" width="200" height="200"><defs><style type="text/css"></style></defs><path d="M979.2 627.2l-76.8 0L902.4 467.2c0-12.8-12.8-25.6-25.6-25.6L537.6 441.6l0-102.4 140.8 0c19.2 0 32-12.8 32-32L710.4 96c0-19.2-12.8-32-32-32l-320 0C339.2 64 326.4 76.8 326.4 96l0 211.2c0 19.2 12.8 32 32 32l128 0 0 102.4L160 441.6c-12.8 0-25.6 12.8-25.6 25.6l0 166.4L44.8 633.6c-19.2 0-32 12.8-32 32l0 224c0 19.2 12.8 32 32 32l224 0c19.2 0 32-12.8 32-32l0-224c0-19.2-12.8-32-32-32L185.6 633.6 185.6 486.4l307.2 0 0 140.8L403.2 627.2c-19.2 0-32 12.8-32 32l0 224c0 19.2 12.8 32 32 32l224 0c19.2 0 32-12.8 32-32l0-224c0-19.2-12.8-32-32-32L537.6 627.2l0-140.8 313.6 0 0 140.8-102.4 0c-19.2 0-32 12.8-32 32l0 224c0 19.2 12.8 32 32 32l224 0c19.2 0 32-12.8 32-32l0-224C1011.2 646.4 992 627.2 979.2 627.2zM384 121.6l268.8 0 0 166.4L384 288 384 121.6zM243.2 864 70.4 864l0-179.2 172.8 0L243.2 864zM601.6 864 428.8 864l0-179.2 172.8 0L601.6 864zM953.6 864l-172.8 0 0-179.2 172.8 0L953.6 864z" p-id="4961" fill="#666666"></path></svg>