<?xml version="1.0" standalone="no"?><!DOCTYPE svg PUBLIC "-//W3C//DTD SVG 1.1//EN" "http://www.w3.org/Graphics/SVG/1.1/DTD/svg11.dtd"><svg t="1484047874914" class="icon" style="" viewBox="0 0 1024 1024" version="1.1" xmlns="http://www.w3.org/2000/svg" p-id="6958" xmlns:xlink="http://www.w3.org/1999/xlink" width="200" height="200"><defs><style type="text/css"></style></defs><path d="M732.8 816c-19.2-169.6-99.2-444.8-128-544 60.8-76.8 83.2-172.8 83.2-176 6.4-28.8-12.8-57.6-41.6-64 0 0-70.4-16-134.4-16-60.8 0-131.2 16-134.4 16-28.8 6.4-48 35.2-41.6 64 0 3.2 22.4 99.2 83.2 176-25.6 86.4-108.8 374.4-128 544-3.2 16 3.2 28.8 12.8 41.6 3.2 3.2 64 73.6 179.2 144 9.6 6.4 19.2 6.4 28.8 6.4 3.2 0 9.6 0 12.8-3.2 6.4 0 9.6-3.2 16-6.4 3.2 0 6.4-3.2 6.4-6.4 121.6-70.4 176-137.6 176-140.8C732.8 841.6 736 828.8 732.8 816zM400 92.8c22.4-3.2 70.4-12.8 112-12.8 41.6 0 89.6 9.6 112 12.8-6.4 28.8-28.8 96-76.8 147.2l-67.2 0C428.8 188.8 406.4 118.4 400 92.8zM512 940.8 512 940.8c-92.8-54.4-144-108.8-156.8-121.6 19.2-156.8 92.8-412.8 121.6-515.2l73.6 0c28.8 99.2 102.4 358.4 121.6 515.2C659.2 832 611.2 886.4 512 940.8z" p-id="6959" fill="#666666"></path></svg>