<?xml version="1.0" standalone="no"?><!DOCTYPE svg PUBLIC "-//W3C//DTD SVG 1.1//EN" "http://www.w3.org/Graphics/SVG/1.1/DTD/svg11.dtd"><svg t="1484047900908" class="icon" style="" viewBox="0 0 1024 1024" version="1.1" xmlns="http://www.w3.org/2000/svg" p-id="7136" xmlns:xlink="http://www.w3.org/1999/xlink" width="200" height="200"><defs><style type="text/css"></style></defs><path d="M887.297131 252.953983l-50.884295 59.667753c0 0-43.846681 48.573559-49.136404 91.243381-271.029507-81.676032-586.128787-1.747891-586.128787-1.747891s-9.228618-41.706845-21.050418-64.953383c-11.81873-23.249609-40.471655-69.517548-45.648809-80.718172-5.12394-11.1996 7.038638-19.307644 7.038638-19.307644S475.268709 69.229985 511.746208 68.668163c36.472382-0.562845 364.296061 165.823467 373.807126 170.217755C895.066444 243.331373 887.297131 252.953983 887.297131 252.953983L887.297131 252.953983zM581.993408 200.325891 441.553245 200.325891l0 75.482686c0 0-2.645373 34.9527 70.192962 64.957477 67.542472-29.325269 70.187846-66.700251 70.187846-66.700251l0-73.739912L581.993408 200.325891zM230.980498 530.228004c1.632252-24.988289 14.802834-49.699249 20.321789-59.155052-10.019672-9.907103-15.086304-16.32354-15.086304-16.32354 241.136276-92.089695 544.47311-12.835945 549.256273 0 0.112569 0.506561-3.318741 5.118823-10.185455 12.269007 7.089805 17.954768 17.225116 63.209586 17.225116 63.209586s60.336004 29.66707 61.405411 110.552048c1.074523 80.884978-100.020699 126.366981-100.020699 126.366981s-46.607693 169.145278-242.149398 189.522329c-197.852441-24.598391-242.149398-193.012994-242.149398-193.012994s-96.255775-33.942648-98.282018-121.076234C170.979131 623.442367 163.828948 556.742116 230.980498 530.228004L230.980498 530.228004zM309.950779 712.715789c0 0 49.029975 166.609404 201.795429 184.28582 138.185711-13.620859 194.812052-177.251276 194.812052-177.251276s111.956092-26.737204 78.970281-112.295846c-19.75485 18.294522-57.863578 10.303141-56.176065-21.050418 1.970982-35.630161-3.262457-61.801449-7.033521-75.367047-47.732361 32.363611-121.133542 66.306259-215.808233 64.841838-92.707802-1.460328-162.449465-34.673324-207.871089-65.910221-2.194074 7.76829-8.331135 33.492372-6.248607 74.636371-2.47652 50.545564-53.640191 31.971666-54.37496 24.598391C206.609292 690.929578 309.950779 712.715789 309.950779 712.715789L309.950779 712.715789zM309.950779 712.715789" p-id="7137" fill="#666666"></path></svg>