<?xml version="1.0" standalone="no"?><!DOCTYPE svg PUBLIC "-//W3C//DTD SVG 1.1//EN" "http://www.w3.org/Graphics/SVG/1.1/DTD/svg11.dtd"><svg t="1484047815894" class="icon" style="" viewBox="0 0 1024 1024" version="1.1" xmlns="http://www.w3.org/2000/svg" p-id="6226" xmlns:xlink="http://www.w3.org/1999/xlink" width="200" height="200"><defs><style type="text/css"></style></defs><path d="M972.8 921.6c0 28.672-22.528 51.2-51.2 51.2L819.2 972.8l0 51.2 102.4 0c56.32 0 102.4-46.08 102.4-102.4L1024 819.2l-51.2 0L972.8 921.6z" p-id="6227" fill="#666666"></path><path d="M921.6 0 819.2 0l0 51.2 102.4 0c28.672 0 51.2 22.528 51.2 51.2l0 102.4 51.2 0L1024 102.4C1024 46.08 977.92 0 921.6 0z" p-id="6228" fill="#666666"></path><path d="M51.2 921.6 51.2 819.2 0 819.2l0 102.4c0 56.32 46.08 102.4 102.4 102.4l102.4 0 0-51.2L102.4 972.8C73.728 972.8 51.2 950.272 51.2 921.6z" p-id="6229" fill="#666666"></path><path d="M51.2 102.4c0-28.672 22.528-51.2 51.2-51.2l102.4 0L204.8 0 102.4 0C46.08 0 0 46.08 0 102.4l0 102.4 51.2 0L51.2 102.4z" p-id="6230" fill="#666666"></path><path d="M174.08 824.32 174.08 849.92l665.6 0 0-25.6c0-153.6-99.328-279.552-237.568-319.488 50.176-31.744 83.968-88.064 83.968-151.552C686.08 254.976 605.184 174.08 506.88 174.08S327.68 254.976 327.68 353.28c0 63.488 33.792 119.808 83.968 151.552C273.408 544.768 174.08 670.72 174.08 824.32zM378.88 353.28C378.88 282.624 436.224 225.28 506.88 225.28S634.88 282.624 634.88 353.28 577.536 481.28 506.88 481.28 378.88 423.936 378.88 353.28zM506.88 542.72c149.504 0 268.288 110.592 280.576 256L226.304 798.72C238.592 653.312 357.376 542.72 506.88 542.72z" p-id="6231" fill="#666666"></path></svg>