<?xml version="1.0" standalone="no"?><!DOCTYPE svg PUBLIC "-//W3C//DTD SVG 1.1//EN" "http://www.w3.org/Graphics/SVG/1.1/DTD/svg11.dtd"><svg t="1484047956979" class="icon" style="" viewBox="0 0 1024 1024" version="1.1" xmlns="http://www.w3.org/2000/svg" p-id="7858" xmlns:xlink="http://www.w3.org/1999/xlink" width="200" height="200"><defs><style type="text/css"></style></defs><path d="M0 318.001041 128 318.001041 128 254.50078 0 254.50078 0 318.001041ZM64.001428 699.001184 192 699.001184 192 635.500924 64.001428 635.500924 64.001428 699.001184ZM832 699.001184 959.998573 699.001184 959.998573 635.500924 832 635.500924 832 699.001184ZM895.998573 318.001041 1024 318.001041 1024 254.50078 895.998573 254.50078 895.998573 318.001041ZM192 381.5013C192 511.536171 271.199732 622.572693 384 671.652352L384 826.004538C384 826.004538 409.772838 889.5048 444.966053 889.5048L448 889.5048 448 910.671494 575.998572 910.671494 575.998572 889.501965C613.214418 889.501965 639.998572 826.001702 639.998572 826.001702L639.998572 671.650931C752.798842 622.571276 831.998573 511.534754 831.998573 381.498466 832 206.151012 688.728845 64 512 64 335.271153 64 192 206.151012 192 381.5013ZM448 826.001702 575.998572 826.001702 575.998572 762.501446 448 762.501446 448 826.001702ZM767.702893 393.620276C767.667181 394.377092 767.624326 395.132492 767.582906 395.886473 767.511482 397.136495 767.432922 398.3851 767.344358 399.629452 767.27008 400.671137 767.187232 401.712822 767.10153 402.750255 757.339763 512.376605 679.294189 601.119654 576.001428 627.499084L576.001428 699.001184 448 699.001184 448 627.499084C344.705814 601.119654 266.661667 512.376605 257.024172 404.140586 256.814195 401.711405 256.729919 400.671137 256.657069 399.629452 256.56708 398.3851 256.489946 397.137912 256.418525 395.886473 256.375672 395.131074 256.334248 394.377092 256.298538 393.620276 256.222832 392.051372 256.162839 390.479632 256.11713 388.903641 256.032854 385.344905 256.001428 383.425937 256.001428 381.499884 256.001428 241.222487 370.620065 127.50026 512.001428 127.50026 653.38279 127.50026 768 241.222487 768 381.499884 768 383.425937 767.970003 385.343488 767.927149 387.259621 767.837158 390.479632 767.778598 392.051372 767.702893 393.620276Z" p-id="7859" fill="#666666"></path></svg>