<?xml version="1.0" standalone="no"?><!DOCTYPE svg PUBLIC "-//W3C//DTD SVG 1.1//EN" "http://www.w3.org/Graphics/SVG/1.1/DTD/svg11.dtd"><svg t="1484047653432" class="icon" style="" viewBox="0 0 1024 1024" version="1.1" xmlns="http://www.w3.org/2000/svg" p-id="2419" xmlns:xlink="http://www.w3.org/1999/xlink" width="200" height="200"><defs><style type="text/css"></style></defs><path d="M367.563911 754.446503l-257.912926 0c-29.719803 0-53.889036-24.169233-53.889036-53.889036L55.761949 650.305941c0-17.271436 8.325856-33.572869 22.283116-43.623175 7.221131-5.254181 15.978099-10.427528 23.360897-13.768649l182.010219-98.697769 17.217547-24.788957-16.840324 21.016724c-64.181842-51.464029-87.48885-152.640694-87.48885-208.119457l0-118.582824c0-79.594106 107.751127-163.741836 209.601405-163.741836 100.556941 0 206.906954 84.174674 206.906954 163.741836l0 118.582824c0 14.684762-2.317229 145.33873-82.71967 208.523625 1.212503 14.819485-10.211972 28.857579-25.058402 30.097027-14.819485 1.239448-28.264799-8.783913-29.504247-23.603398-1.562782-18.861163 6.358906-37.102601 21.205336-48.850411 49.20069-38.665383 62.187947-125.615343 62.187947-166.193787l0-118.582824c0-41.38678-71.510751-109.8528-153.017918-109.8528-80.294664 0-155.712369 68.519909-155.712369 109.8528l0 118.582824c0 46.560127 20.882001 128.848685 67.307406 166.059064 14.738651 11.855588 22.498673 30.123971 20.801168 48.9043C336.523827 516.041408 325.638241 532.585342 309.094307 541.584811l-183.788557 99.559994c-5.766127 2.694452-11.370587 6.035572-15.681709 9.161136l0 50.251526 257.912926 0c14.873374 0 26.944518 12.0442 26.944518 26.944518S382.437285 754.446503 367.563911 754.446503zM772.755573 972.670154l5.550571-25.139235c0.754447-0.29639 1.535838-0.619724 2.290284-0.943058l20.774223 13.229758c23.522564 16.355322 59.008494 14.954207 78.300769-4.445845l21.420892-21.420892c18.995885-18.995885 20.531723-49.658747 4.068622-75.74104l-13.71476-22.90284c0.215556-0.565835 0.458057-1.104725 0.673613-1.67056l25.139235-6.278073c30.662861-7.059464 51.221529-29.773692 51.221529-56.583488l0-30.312583c0-31.84842-26.917573-53.91598-51.194584-58.307937l-24.465622-5.415848c-0.431112-1.077781-0.862225-2.155561-1.347226-3.233342l13.364481-22.283116c16.732546-26.648128 15.196708-57.284045-3.745288-76.226041l-21.474781-21.474781c-19.373108-19.373108-55.829041-19.992832-77.384656-5.01168l-21.609503 13.768649c-0.862225-0.377223-1.751394-0.727502-2.667507-1.104725l-5.30807-23.926732c-4.526679-25.327847-26.54035-52.272365-58.469604-52.272365L683.919497 484.974379c-26.809795 0-49.550969 20.585612-56.448765 50.709583L621.219604 560.715419C619.522099 561.389032 617.878483 562.089589 616.180979 562.817091L594.733142 549.156221c-23.441731-16.301433-58.927661-14.954207-78.273825 4.418901L495.038426 574.996014c-18.995885 18.968941-20.504778 49.604858-4.068622 75.794929l14.819485 24.735068C505.627621 675.957122 505.43901 676.36129 505.277343 676.765458l-23.441731 5.227236c-25.327847 4.580568-52.218476 26.648128-52.218476 58.496549l0 30.312583c0 26.782851 20.585612 49.524024 50.736527 56.47571l25.381736 6.305017-14.496151 24.169233c-16.678657 26.621184-15.169764 57.230156 3.799177 76.199097l21.367003 21.340058c19.373108 19.480886 55.802097 20.208388 77.465489 5.065569l22.390894-14.280595c1.724449 0.754447 3.475843 1.508893 5.200292 2.182506l6.089461 24.357844c7.059464 30.662861 29.773692 51.221529 56.583488 51.221529L714.447636 1023.837794C746.269112 1023.891683 768.363616 996.97411 772.755573 972.670154zM599.933434 892.617991 564.016392 915.574721c-1.535838 1.050836-4.526679 2.20945-9.457526 1.697505l-20.962835-20.558667c-0.29639-1.239448 0.377223-5.658349 3.556676-10.750863l22.148394-36.940934c4.715291-7.867799 5.092514-17.567826 1.050836-25.785904-3.583621-7.27502-6.331962-13.984205-8.460579-20.558667-2.856119-8.837802-10.07725-15.573931-19.103663-17.837271l-39.904831-9.942527c-5.388904-1.239448-8.999469-3.906955-9.403637-4.041678l0-30.258694c0.323334-1.455004 4.122511-4.850013 8.999469-5.739182l38.880939-8.622246c9.430581-2.101672 17.028935-9.080303 19.885054-18.322272 2.101672-6.763074 5.065569-14.011149 9.080303-22.121449 4.041678-8.218078 3.664454-17.918104-1.050836-25.785904L536.883262 622.633921C533.973254 617.97252 533.299641 613.526674 533.11103 613.122507l23.792009-21.798115c2.80223 0 5.658349 1.077781 8.002522 2.694452l34.973984 22.283116c8.164189 5.146403 18.510884 5.631404 27.079241 1.077781 8.029466-4.230289 16.436156-7.786966 25.085346-10.535307 8.918635-2.829174 15.708654-10.07725 17.971993-19.130608l9.861694-39.446774C681.090323 542.932037 683.730885 539.321472 683.919497 538.890359L714.178191 538.890359c1.428059 0.323334 4.796124 4.068622 5.685293 8.972524l8.730024 39.365941C730.668236 596.551628 737.512143 604.069148 746.565501 607.006101 754.594968 609.619719 762.570545 612.960839 770.249733 616.948628c8.514468 4.445845 18.780329 3.9339 26.863684-1.185559l35.000929-22.337005c1.508893-1.023892 4.418901-2.155561 9.457526-1.724449l20.962835 20.639501c0.29639 1.212503-0.377223 5.658349-3.583621 10.750863l-21.043669 35.054818c-4.796124 7.975577-5.119458 17.864215-0.889169 26.163127 4.203345 8.164189 7.409742 15.92421 9.861694 23.711176 2.883063 9.188081 10.481417 16.112822 19.85811 18.214494l39.904831 8.810857c3.853066 0.700557 7.652243 4.095567 7.975577 5.496682l0.242501 29.369525c-0.646668 1.104725-4.257234 3.772233-10.131139 5.092514l-39.41983 9.834749c-8.999469 2.26334-16.2206 8.972524-19.076719 17.756437-2.451951 7.463631-5.550571 14.900318-9.215025 22.040616-4.230289 8.271967-3.9339 18.160605 0.83528 26.136182l21.393947 35.674542c2.883063 4.607513 3.556676 8.999469 3.745288 9.430581l-23.765065 21.82506c-2.829174 0-5.631404-1.050836-8.029466-2.721396l-34.219538-21.798115c-8.083355-5.119458-18.349217-5.631404-26.863684-1.185559-7.517521 3.906955-15.358375 7.194186-23.307008 9.753916-9.080303 2.963897-15.897266 10.508362-17.971993 19.804221l-8.918635 40.470666c-0.700557 3.826122-4.068622 7.625299-5.523626 7.975577L685.078111 970.245148c-1.104725-0.646668-3.772233-4.257234-5.092514-10.131139l-9.673082-38.82705c-2.290284-9.134192-9.188081-16.409211-18.18755-19.211441-8.298912-2.586674-16.490045-6.035572-25.112291-10.589196-3.9339-2.074728-8.271967-3.09862-12.58309-3.09862C609.364016 888.387702 604.352335 889.815762 599.933434 892.617991zM817.591251 754.446503c0-65.259623-53.161534-118.367267-118.50199-118.367267-65.394345 0-118.555879 53.107645-118.555879 118.367267 0 65.232678 53.188478 118.313378 118.555879 118.313378C764.429717 872.759882 817.591251 819.679181 817.591251 754.446503zM763.702215 754.446503c0 35.512875-28.992301 64.424342-64.612954 64.424342-35.647597 0-64.666843-28.884523-64.666843-64.424342 0-35.539819 29.019246-64.478232 64.666843-64.478232C734.709913 689.995216 763.702215 718.906684 763.702215 754.446503z" p-id="2420" fill="#666666"></path></svg>